<defs>
<font horiz-adv-x="410" ><font-face
    font-family="ubuntu-title"
    units-per-em="1000"
    panose-1="2 0 5 3 0 0 0 0 0 0"
    ascent="800"
    descent="-186"
    alphabetic="0" />
<missing-glyph horiz-adv-x="338" />
<glyph unicode="&#xd;" glyph-name="CR" horiz-adv-x="338" />
<glyph unicode=" " glyph-name="space" horiz-adv-x="338" />
<glyph unicode="!" glyph-name="exclam" horiz-adv-x="384" d="M186 0Q154 4 142 36Q140 44 140 54V60Q140 92 166 108Q194 124 220 108T246 60V54Q246 30 228 14Q212 -2 186 0ZM192 192Q160 194 144 222Q140 236 140 246V614Q140 644 166 660Q194 676 220 660T246
614V246Q246 222 232 208Q216 192 192 192Z" />
<glyph unicode="&quot;" glyph-name="quotedbl" horiz-adv-x="462" d="M310 620Q332 622 350 604Q368 588 366 564V466Q366 436 338 418T282 418T254 466V564Q254 588 270 604T310 620ZM104 620Q128 622 144 604Q162 588 160 564V466Q160 436 132 418T78 418Q48
436 48 466V564Q48 588 64 604T104 620Z" />
<glyph unicode="#" glyph-name="numbersign" horiz-adv-x="792" d="M214 710Q180 706 168 672Q164 664 164 654V550H76Q42 550 26 522T26 466Q42 436 76 440H164V258H76Q42 258 26 230T26 174T76 146H164V56Q164 24 194 6Q220 -8 248 6Q278 24 278 56V146H458V56Q456
24 486 6Q514 -8 540 6Q570 24 570 56V146H660Q692 146 708 174T708 230T660 258H570V440H660Q692 436 708 466Q724 494 708 522T660 550H570V654Q570 684 540 702Q514 720 486 702Q456 684 458 654V550H278V654Q278 680 260 696Q240 712 214 710ZM278 440H458V258H278V440Z"
/>
<glyph unicode="$" glyph-name="dollar" horiz-adv-x="1000" d="M498 696Q476 696 460 678Q444 662 444 638V596H402L368 592Q346 588 328 580Q280 556 260 498Q248 472 248 444Q248 370 306 324Q318 316 328 308Q366 290 402 292H444V208H318Q284 208 268 180T268
124T318 96H444V56Q444 22 472 4Q500 -12 528 4Q556 22 556 56V96H596L632 100Q652 104 672 114Q720 140 740 196Q752 220 752 248Q752 324 694 368Q682 380 672 384Q632 404 596 402H556V484H670Q700 484 720 512Q736 540 720 568Q700 596 670 596H556V638Q556
662 540 680Q522 696 498 696ZM402 484H444V402H402Q400 404 380 408Q364 416 364 420Q360 428 360 444Q360 470 372 476Q350 464 380 480Q390 484 402 484ZM556 292H596L618 286L620 284Q634 280 636 272Q640 264 640 248Q640 222 628 216H620Q610 208 596 208H556V292Z"
/>
<glyph unicode="&apos;" glyph-name="quotesingle" horiz-adv-x="384" d="M192 628Q216 630 234 614Q250 596 248 572V476Q248 442 220 426Q194 408 164 426Q136 442 136 476V572Q136 596 154 612Q168 628 192 628Z" />
<glyph unicode="(" glyph-name="parenleft" horiz-adv-x="380" d="M192 700Q228 704 248 674Q248 672 252 668Q266 634 242 608Q240 604 240 602L220 578Q210 564 200 544Q160 460 160 350Q160 244 200 160Q220 116 240 100Q262 76 256 44Q248 12 216 2Q180 -4
160 20L132 56Q114 80 100 108Q46 216 46 350Q46 486 100 596Q128 650 160 680Q172 698 192 700Z" />
<glyph unicode=")" glyph-name="parenright" horiz-adv-x="332" d="M118 2Q82 -2 60 28V34Q42 68 68 96Q70 96 72 100L92 124Q100 140 110 158Q152 242 152 350Q152 460 110 544Q88 586 72 602Q48 626 56 660Q62 692 96 700Q128 708 150 680L178 648Q196 622 208
596Q264 484 264 350T208 108Q180 52 150 20Q136 4 118 2Z" />
<glyph unicode="*" glyph-name="asterisk" horiz-adv-x="530" d="M346 798Q378 800 396 770Q412 744 396 716L362 652H436Q470 652 486 622Q502 596 486 568Q470 538 436 540H364L404 476Q424 444 404 412Q396 404 386 398Q356 380 324 400Q316 408 308 418L270
478L236 414Q220 380 182 384Q172 384 160 390Q128 408 132 444Q132 456 136 466L176 540H96Q64 538 48 568Q32 596 48 622Q64 652 96 652H162L128 704Q108 738 132 768Q136 778 146 784Q180 800 208 780Q218 776 224 764L260 702L298 766Q312 798 346 798Z" />
<glyph unicode="+" glyph-name="plus" horiz-adv-x="592" d="M318 642Q342 642 360 624Q376 608 376 584V446H514Q544 446 562 420Q580 390 562 362T514 334H376V196Q376 164 348 146Q320 130 290 146Q262 164 262 196V334H124Q92 334 76 362T76 420Q92 446 124
446H262V584Q262 608 280 624Q294 642 318 642Z" />
<glyph unicode="," glyph-name="comma" horiz-adv-x="230" d="M100 212Q122 212 140 196Q156 178 156 154V56Q156 24 128 8T70 8Q42 24 42 56V154Q42 178 60 196Q74 212 100 212Z" />
<glyph unicode="-" glyph-name="hyphen" horiz-adv-x="356" d="M276 184H86Q52 184 36 212T36 268Q54 296 86 296H276Q308 296 324 268T324 212T276 184Z" />
<glyph unicode="." glyph-name="period" horiz-adv-x="196" d="M80 0Q48 4 36 36Q34 44 34 54V60Q34 92 60 108Q88 124 114 108T140 60V54Q140 28 122 12Q104 -2 80 0Z" />
<glyph unicode="/" glyph-name="slash" horiz-adv-x="1000" d="M716 700Q750 702 768 670T764 610L326 24Q304 -4 268 4Q256 6 248 14Q216 36 224 72Q228 82 236 92L674 676Q690 698 716 700Z" />
<glyph unicode="0" glyph-name="zero" horiz-adv-x="628" d="M316 696Q232 696 166 646Q48 558 48 348Q44 140 156 52Q220 0 316 0Q400 0 464 48Q584 136 584 346Q584 550 476 640L464 648Q400 696 316 696ZM316 112Q156 112 160 346Q160 502 232 556Q268 584
316 584T398 558Q472 504 472 346Q472 192 398 136Q364 112 316 112Z" />
<glyph unicode="1" glyph-name="one" horiz-adv-x="242" d="M142 668Q164 668 180 652T196 614V56Q196 24 168 8Q142 -8 116 8Q88 24 90 56V560H54Q24 560 8 586Q-8 614 8 640Q22 666 54 666L142 668Z" />
<glyph unicode="2" glyph-name="two" horiz-adv-x="562" d="M412 472Q412 588 320 588H200Q178 588 164 580Q160 576 160 572Q160 538 132 522Q102 504 76 522Q48 538 48 572Q50 636 100 672Q142 700 200 700H320Q404 700 462 644Q524 582 524 472Q524 360 450
300Q388 248 272 248Q204 248 180 224Q160 208 160 158V116H468Q500 116 516 88T516 32T468 4H102Q68 4 52 36Q48 48 48 60V158Q48 256 104 308T272 360Q346 360 380 386Q412 412 412 472Z" />
<glyph unicode="3" glyph-name="three" horiz-adv-x="562" d="M154 132Q180 114 220 114L318 112Q356 112 378 136Q408 164 408 224Q408 256 400 270Q398 276 390 280Q372 286 268 286Q232 286 220 324Q212 362 234 384Q246 400 268 400Q388 400 400 422Q408 436
408 468Q408 532 378 560Q356 582 318 582H316L220 584Q190 584 166 572Q154 564 154 566Q154 534 126 516Q98 500 70 516Q40 534 40 566Q44 636 116 672Q162 696 220 696H318Q400 696 456 640Q520 578 520 468Q520 412 500 372Q494 364 480 346Q496 328 500 322Q520
284 520 224Q520 120 456 56Q400 0 318 0H316H220Q164 0 116 24Q40 60 40 128Q40 162 70 178Q98 196 126 178Q154 162 154 128V132Z" />
<glyph unicode="4" glyph-name="four" horiz-adv-x="600" d="M408 700Q386 698 372 680L84 342Q32 292 32 238Q32 200 58 172Q84 152 122 152H360V60Q360 28 386 12Q416 -4 442 12Q472 28 470 60V152H512Q544 150 560 178Q578 208 560 236Q544 262 512 262H470V644Q470
670 452 686Q432 704 408 700ZM360 494V262H160L360 494Z" />
<glyph unicode="5" glyph-name="five" horiz-adv-x="568" d="M52 398V640Q52 676 82 690Q92 696 100 696H472Q504 696 520 668T520 612Q504 582 472 584H162V452H278Q392 452 456 400Q528 340 528 224Q528 118 456 54Q396 0 312 0H204Q148 0 106 28Q52 64 52 128Q52
162 80 178Q108 196 136 178Q162 162 162 128Q162 124 168 120Q182 112 204 112H312Q354 112 382 138Q416 168 416 224Q416 288 384 316Q352 340 278 340H108Q72 340 58 372Q52 384 52 398Z" />
<glyph unicode="6" glyph-name="six" horiz-adv-x="546" d="M292 404Q232 404 162 380V492Q162 534 192 558Q226 582 278 582Q328 582 360 558T392 492Q392 460 420 444Q448 426 476 444Q504 460 504 492Q504 584 428 648Q366 694 278 694Q188 694 126 648Q60
596 52 512V248Q50 248 52 244V224Q52 120 112 56Q168 0 252 0H300Q360 2 400 24Q462 56 488 126Q504 162 504 202Q504 300 430 360Q416 372 400 380Q348 404 300 404H296H292ZM162 224V248Q162 256 170 260Q200 282 276 290Q280 292 296 292H300H302Q326 292 348
280Q378 264 384 244Q392 228 392 202Q392 142 348 124Q328 114 300 112H252Q216 112 192 136Q162 164 162 224Z" />
<glyph unicode="7" glyph-name="seven" horiz-adv-x="588" d="M84 684H528Q562 684 580 654Q594 622 574 596L136 12Q114 -18 78 -10Q64 -6 56 0Q26 22 36 58Q40 68 44 80L416 572H90Q54 572 38 600Q32 614 32 626Q30 660 60 678Q72 684 84 684Z" />
<glyph unicode="8" glyph-name="eight" horiz-adv-x="596" d="M300 700Q232 700 172 676Q102 644 70 576Q52 538 52 494V494Q50 404 118 344Q96 328 88 320Q48 270 48 202V200Q46 130 84 80Q118 40 172 20Q224 0 300 0Q372 0 428 22Q480 42 514 82Q552 132 552
200Q552 272 514 320Q504 332 482 346Q548 408 548 494Q548 592 468 654Q406 700 300 700ZM300 588Q348 588 384 574Q420 558 428 536Q438 520 438 494Q438 442 404 422T320 400H300H282Q240 400 214 412Q180 426 170 448Q164 464 164 492V494Q164 544 196 564Q240
588 300 588ZM440 200Q440 112 300 112Q204 112 174 152Q160 168 160 200V200Q160 280 284 288H300H320Q398 284 426 248Q440 232 440 200Z" />
<glyph unicode="9" glyph-name="nine" horiz-adv-x="528" d="M480 184V468Q480 576 420 638Q364 694 280 694H232Q88 688 44 568Q30 534 30 492Q30 392 102 336Q118 324 134 316Q182 290 232 292H242Q316 300 342 304Q346 306 368 316V202Q368 160 340 136Q306
112 256 112Q204 112 172 136Q146 160 116 148Q84 136 80 100Q76 68 104 48Q168 0 256 0T406 48Q474 100 480 184ZM236 404H230Q206 404 184 416Q156 428 148 452Q140 466 140 492Q140 546 172 564Q200 582 232 582H280Q318 582 340 560Q368 530 368 468V444Q368
440 360 434Q334 412 258 404Q252 404 236 404Z" />
<glyph unicode=":" glyph-name="colon" horiz-adv-x="280" d="M120 324Q88 328 76 360Q74 368 74 378V384Q74 416 100 432Q128 448 154 432T180 384V378Q180 354 162 338Q144 320 120 324ZM120 98Q88 100 76 132Q74 140 74 152V160Q74 190 100 204Q128 220 154
204Q180 190 180 160V152Q180 128 162 112Q144 94 120 98Z" />
<glyph unicode=";" glyph-name="semicolon" horiz-adv-x="276" d="M138 212Q160 212 178 196Q194 180 194 156V58Q194 24 166 8Q138 -6 110 8Q82 24 82 58V156Q82 180 98 196T138 212ZM128 364Q96 368 84 400Q80 408 80 418V424Q80 456 106 472Q134 488 160 472T186
424V418Q186 392 168 378Q152 360 128 364Z" />
<glyph unicode="&lt;" glyph-name="less" horiz-adv-x="518" d="M360 744Q396 748 416 712Q432 680 406 650L150 372L406 94Q432 68 416 34Q412 24 402 16Q376 -10 340 4Q332 10 324 18L32 334Q6 362 20 396Q24 404 32 410L324 724Q338 744 360 744Z" />
<glyph unicode="=" glyph-name="equal" horiz-adv-x="574" d="M426 440H118Q84 440 68 466Q52 494 68 522T118 550H426Q458 550 476 522Q492 494 476 466Q458 440 426 440ZM426 202H118Q84 202 68 230T68 286Q84 316 118 316H426Q458 316 476 286Q492 258 476
230Q458 202 426 202Z" />
<glyph unicode="&gt;" glyph-name="greater" horiz-adv-x="520" d="M120 740Q84 744 64 708Q48 676 74 646L332 368L74 90Q48 64 64 28Q68 18 78 10Q104 -16 140 0Q150 4 158 14L448 330Q474 358 460 390Q456 400 448 406L158 720Q140 740 120 740Z" />
<glyph unicode="?" glyph-name="question" horiz-adv-x="614" d="M200 8Q168 12 158 42Q154 52 154 60V70Q154 100 180 118Q208 132 236 118Q260 100 260 70V60Q260 38 242 22T200 8ZM224 604Q184 604 184 588Q184 554 156 538Q128 520 100 538Q72 554 72 588Q72
636 120 680Q122 684 128 690Q168 716 224 716H338Q402 718 450 680Q502 640 514 556Q516 548 516 540Q516 444 432 396Q378 362 314 362Q300 360 288 356Q276 348 276 342Q272 336 272 320V272Q272 240 244 222Q216 206 186 222Q160 240 160 272V320Q160 394 216
440Q226 450 240 456Q278 476 314 474Q348 474 376 490T404 540Q404 578 382 592Q364 604 338 604H224Z" />
<glyph unicode="@" glyph-name="at" horiz-adv-x="1000" d="M692 -100H696Q754 -100 798 -44Q876 44 876 252Q876 456 754 560Q740 572 728 580Q630 650 480 650Q342 650 244 560Q128 446 124 252Q124 68 224 -34Q278 -84 338 -100Q372 -110 396 -80Q402 -72 404
-60Q414 -24 384 0Q376 4 364 8Q328 20 304 48Q236 116 236 252Q236 402 320 476Q384 538 480 538Q764 538 764 252Q764 88 712 28Q700 16 692 12V8H688Q680 8 680 12Q672 18 668 32Q660 52 662 80V268Q662 384 594 442Q540 484 480 478H472V476Q424 476 384 448Q296
388 296 252Q296 132 368 68Q374 60 384 56Q430 26 480 26Q520 32 554 42Q560 -30 600 -68Q638 -102 692 -100V-100ZM552 268V208Q552 166 528 152Q524 152 518 148Q500 138 480 138Q410 148 406 240V252Q406 328 444 356Q464 366 480 366Q480 368 484 368V368Q538
364 548 310Q552 292 552 268Z" />
<glyph unicode="A" glyph-name="A" horiz-adv-x="450" d="M406 60V264Q400 358 340 412Q324 426 306 436Q268 456 230 456Q140 456 84 380Q22 288 50 156Q68 72 134 30Q150 20 168 12Q242 -12 304 20Q316 -12 352 -14Q376 -16 392 2Q406 20 406 60ZM226 348Q266
348 288 312Q302 286 300 194Q294 128 254 112Q240 108 216 110Q176 116 160 154Q156 162 156 170Q140 232 156 292Q164 332 204 344Q216 348 226 348Z" />
<glyph unicode="B" glyph-name="B" horiz-adv-x="472" d="M240 0H248V0Q296 2 340 32Q412 80 428 190Q432 212 432 238Q432 364 356 428Q304 474 240 474Q192 468 156 454V604Q156 628 140 642Q124 660 102 660Q68 660 56 628Q50 618 50 604V218Q50 76 148 20Q194
-4 240 0ZM156 218V284Q156 332 184 350Q188 352 196 356Q218 368 240 368Q264 364 280 354Q326 324 326 238T280 120Q260 106 240 104H234Q168 104 158 180Q156 198 156 218Z" />
<glyph unicode="C" glyph-name="C" horiz-adv-x="420" d="M242 476Q304 476 354 444Q380 426 380 396Q376 364 348 350Q320 338 296 356Q274 368 242 368Q216 368 192 354Q148 324 148 240V238Q148 148 190 120Q212 106 242 106Q274 106 296 120Q320 140 348 126T380
80Q380 48 354 34Q304 0 242 0T134 32Q42 90 42 240Q42 368 120 432Q170 476 242 476Z" />
<glyph unicode="D" glyph-name="D" horiz-adv-x="472" d="M424 218V604Q424 628 408 642Q394 660 370 660Q336 660 322 628Q318 618 318 604V452Q274 472 232 472Q174 468 136 442Q42 380 42 236Q42 110 120 42L136 32Q180 2 226 0V0H228H232V0Q280 -4 328 20Q396
56 416 148Q424 180 424 218ZM318 282V218Q320 132 278 114Q260 102 240 104H232Q210 110 192 120Q150 160 148 236Q148 324 192 354Q216 368 232 368Q260 364 278 356Q306 340 314 320Q318 304 318 282Z" />
<glyph unicode="E" glyph-name="E" horiz-adv-x="460" d="M246 110H228Q162 120 148 188H366Q402 188 416 220Q420 230 420 240V260Q420 400 324 460Q284 480 240 480Q180 480 128 446Q44 388 36 252Q36 240 36 230Q42 100 128 36Q178 2 228 2Q300 0 328 6Q368
16 400 40Q424 58 420 88Q416 120 388 132Q358 142 334 122Q316 110 246 110ZM240 372Q258 372 272 364Q304 348 312 298V294H148Q156 338 188 360Q208 372 228 372H236H240Z" />
<glyph unicode="F" glyph-name="F" horiz-adv-x="390" d="M284 660L312 656Q342 648 352 618Q360 586 336 564Q314 542 284 552L250 556Q232 556 222 544Q212 534 212 504V454H298Q328 456 344 428T344 376Q328 348 298 348H212V52Q212 20 188 4Q160 -12 132 4Q106
20 106 52V348H94Q62 348 46 376Q32 400 46 428Q62 456 94 454H106V504Q106 572 140 612Q168 648 218 658Q250 664 284 660Z" />
<glyph unicode="G" glyph-name="G" horiz-adv-x="472" d="M424 52V256Q424 378 354 440Q308 476 246 476T136 444Q62 396 46 288Q42 264 42 238Q42 110 120 44L136 32Q184 0 234 0Q280 4 318 20Q314 -52 294 -68Q280 -78 218 -78Q202 -76 188 -72L164 -60L166
-66Q150 -40 120 -40Q88 -40 74 -68T76 -120Q98 -158 144 -172Q158 -174 160 -174L206 -184H214Q288 -184 318 -174Q340 -164 360 -150Q424 -92 424 52ZM244 370Q264 370 278 360Q320 340 320 256V192Q320 140 290 122L280 120Q258 108 234 106Q150 118 148 232V238Q148
324 194 356Q216 368 234 368Q238 368 240 370H244Z" />
<glyph unicode="H" glyph-name="H" horiz-adv-x="478" d="M52 56V608Q52 640 80 658Q92 662 104 662Q128 662 142 648Q158 632 158 608V456Q200 476 242 476Q340 476 392 406Q436 352 434 286V56Q436 24 408 8Q380 -6 356 8Q328 24 328 56V286Q320 354 280 366Q266
372 242 372Q192 372 176 340T158 286V56Q158 16 120 4Q88 -4 64 20Q52 34 52 56Z" />
<glyph unicode="I" glyph-name="I" horiz-adv-x="204" d="M100 668Q66 664 56 632Q52 624 52 614V606Q52 576 78 560T132 560Q158 576 158 606V614Q158 638 140 656Q122 672 100 668ZM104 476Q70 476 58 444Q52 434 52 422V54Q52 24 78 8T132 8Q158 24 158 54V422Q158
444 142 460Q128 476 104 476Z" />
<glyph unicode="J" glyph-name="J" horiz-adv-x="270" d="M156 664Q124 662 110 632Q104 622 104 610V600Q104 572 132 556T184 556Q212 572 210 600V610Q212 632 196 650Q180 664 156 664ZM156 480Q124 480 110 448Q104 440 104 426V-28Q104 -56 96 -68Q80 -86
36 -76Q4 -66 -20 -88Q-40 -110 -32 -140T4 -176L44 -184Q132 -188 178 -136Q210 -94 210 -28V426Q212 448 196 464T156 480Z" />
<glyph unicode="K" glyph-name="K" horiz-adv-x="436" d="M90 670Q112 670 128 654T144 616V322L314 484Q340 508 374 494Q382 490 390 482Q414 456 400 424Q394 414 388 406L264 290L414 86Q436 56 416 26Q410 18 402 12Q374 -10 342 10Q334 14 328 22L186 216L144
176V54Q144 24 118 8Q90 -8 64 8T38 54V616Q38 650 68 664Q78 670 90 670Z" />
<glyph unicode="L" glyph-name="L" horiz-adv-x="202" d="M156 600Q156 636 124 650Q116 654 104 654Q72 654 56 624Q52 614 52 600V52Q52 20 82 6Q92 2 104 2Q138 2 152 32Q156 42 156 52V600Z" />
<glyph unicode="M" glyph-name="M" horiz-adv-x="628" d="M203 478Q271 478 319 436Q367 478 433 478Q517 478 565 418Q603 372 601 314V56Q601 26 575 10T521 10Q495 26 495 56V314Q489 357 463 368Q453 372 433 372Q395 372 383 352Q373 334 371 314V203Q371
173 345 157T291 157Q265 171 265 203V314Q259 357 233 368Q223 372 203 372Q167 372 155 352Q143 331 141 314V56Q143 26 115 10Q89 -6 61 10Q35 26 35 56V314Q43 438 147 470Q173 478 203 478Z" />
<glyph unicode="N" glyph-name="N" horiz-adv-x="466" d="M48 280Q48 350 90 402Q140 466 236 466Q380 452 414 336Q420 310 422 280V52Q422 20 392 6Q380 0 370 0Q336 0 324 32Q320 42 320 52V280Q316 354 236 362Q168 362 154 298Q152 288 152 280V52Q152 20
120 6Q112 0 100 0Q66 0 52 32Q48 42 48 52V280Z" />
<glyph unicode="O" glyph-name="O" horiz-adv-x="482" d="M242 474Q182 474 134 440Q44 380 44 238Q42 104 118 40Q172 0 242 0Q304 0 354 32Q444 92 444 238Q444 374 354 442Q306 474 242 474ZM148 230V238Q148 324 192 352Q216 368 242 368Q340 368 340 238Q340
104 242 104Q148 104 148 230Z" />
<glyph unicode="P" glyph-name="P" horiz-adv-x="468" d="M244 474H238Q188 478 144 454Q76 418 56 324Q48 292 48 256V-132Q48 -162 72 -178Q100 -194 128 -178Q152 -162 152 -132V20Q196 0 238 0Q296 6 336 32Q410 82 426 190Q428 212 428 238Q428 380 336 442Q294
472 244 472V474ZM152 192V256Q152 340 194 360Q212 370 232 368Q236 368 238 368L260 364Q322 336 322 238Q322 152 278 120Q258 106 238 106Q172 116 158 152Q152 168 152 192Z" />
<glyph unicode="Q" glyph-name="Q" horiz-adv-x="492" d="M226 474H232Q284 478 328 454Q396 418 416 324Q424 292 424 256V-132Q424 -162 400 -178Q372 -194 344 -178Q318 -162 318 -132V20Q274 0 232 0Q176 6 136 32Q42 96 42 238T136 442Q180 472 226 472V474ZM318
192V256Q320 340 278 360Q260 370 240 368H232L212 364Q202 360 192 354Q148 324 148 238T192 120Q216 106 232 106Q260 110 278 120Q306 132 314 152Q318 168 318 192Z" />
<glyph unicode="R" glyph-name="R" horiz-adv-x="404" d="M228 476Q340 476 396 378Q412 348 396 320Q380 294 344 296Q316 300 300 330Q288 358 264 364Q252 368 228 368Q178 368 160 340Q158 336 154 330Q144 308 142 284V54Q142 24 118 8Q90 -8 64 8T38 54V284Q48
422 160 462Q192 476 228 476Z" />
<glyph unicode="S" glyph-name="S" horiz-adv-x="414" d="M198 478Q256 478 298 456Q366 418 356 370Q352 340 318 330Q288 322 268 344Q240 386 178 378Q174 378 172 376Q138 372 126 342Q120 326 130 308Q154 292 208 294Q240 294 256 290Q320 284 360 226Q386
190 384 148Q386 84 332 42Q310 26 286 18Q180 -16 98 18Q32 50 20 94Q12 128 46 148Q78 168 104 146Q108 144 110 142Q144 98 230 112Q264 114 276 138Q284 152 276 168Q258 188 212 188Q112 184 66 228Q16 270 20 338Q20 382 46 416Q92 480 194 478H198Z" />
<glyph unicode="T" glyph-name="T" horiz-adv-x="346" d="M148 664Q172 664 188 648T202 610V472H268Q300 472 316 444Q332 420 316 392T268 366H202V158Q202 128 212 118Q218 110 232 108Q248 102 272 110Q304 120 328 96Q348 76 340 44Q332 14 302 6L264 0Q176
-6 132 48Q96 90 96 158V366H64Q32 364 18 392Q2 420 18 444Q32 472 64 472H96V610Q96 642 124 660Q136 664 148 664Z" />
<glyph unicode="U" glyph-name="U" horiz-adv-x="476" d="M100 476Q122 476 140 460Q156 444 156 420V192Q156 164 166 146Q180 120 200 112Q218 106 240 106Q290 106 308 136L314 146Q324 168 324 192V420Q324 452 352 468T404 468Q432 452 432 420V192Q420 54
308 12Q276 0 240 0Q144 0 90 72Q80 84 72 98Q48 144 48 192V420Q48 456 78 470Q88 476 100 476Z" />
<glyph unicode="V" glyph-name="V" horiz-adv-x="456" d="M70 484Q104 486 120 456L124 448Q168 258 204 170L220 138Q224 132 228 144Q272 238 322 428Q326 468 358 480L366 484Q400 492 424 462Q440 444 436 422Q414 324 376 208Q336 98 310 58Q302 46 294 36Q266
-2 220 0Q210 0 200 4Q150 20 112 100Q108 106 106 114Q58 226 16 416Q8 450 38 474Q52 486 70 484Z" />
<glyph unicode="W" glyph-name="W" horiz-adv-x="620" d="M86 474Q116 476 132 448Q138 438 138 426V220L140 156Q142 142 148 130Q160 100 220 106Q252 108 260 154Q262 156 262 158L264 248V252Q270 280 302 290Q328 296 348 280Q370 264 368 220L370 156Q372
142 378 130Q388 104 450 106Q482 108 490 154Q492 158 492 160V406Q488 452 518 468Q546 486 576 464Q596 450 598 428V192Q602 106 560 56Q512 -2 430 -2Q362 0 316 42Q258 -10 178 0Q144 4 116 20Q54 52 38 124Q34 138 34 152V412Q28 446 56 466Q70 476 86 474Z"
/>
<glyph unicode="X" glyph-name="X" horiz-adv-x="496" d="M74 476Q100 476 116 456L224 322L332 456Q352 480 382 476Q412 470 424 442Q434 414 414 390L292 238L414 88Q434 64 424 34Q412 6 382 2Q352 -4 332 20L224 154L116 20Q96 -4 66 2Q36 6 24 34Q14 64
34 88L156 238L34 390Q12 416 26 446T74 476Z" />
<glyph unicode="Y" glyph-name="Y" horiz-adv-x="482" d="M432 422V30Q432 -90 380 -140Q338 -184 242 -184Q150 -196 74 -150Q48 -134 48 -104Q48 -72 76 -58Q102 -42 128 -60Q160 -78 236 -78H240Q292 -78 306 -64Q324 -48 324 20Q268 -8 204 4Q76 38 52 188Q48
212 48 238V422Q48 458 80 472Q88 476 100 476Q124 476 140 460T156 422V238Q156 152 200 120Q220 106 240 106Q266 108 284 120Q312 132 320 152Q324 168 324 192V422Q324 452 352 470Q380 484 404 470Q432 452 432 422Z" />
<glyph unicode="Z" glyph-name="Z" horiz-adv-x="434" d="M74 466H350Q382 466 396 436Q412 408 392 380L182 106H350Q380 106 396 80T396 26Q380 0 350 0H74Q42 0 26 30Q12 60 32 86L242 360H74Q44 360 28 386Q12 414 28 440T74 466Z" />
<glyph unicode="[" glyph-name="bracketleft" horiz-adv-x="426" d="M114 744H264Q298 746 314 718T314 660Q298 632 264 632H176V114H264Q298 114 314 84Q330 56 314 28T264 0H120Q84 0 68 32Q62 44 62 56V690Q62 724 96 740Q104 744 114 744Z" />
<glyph unicode="\" glyph-name="backslash" horiz-adv-x="1000" d="M286 696Q250 700 232 666Q216 634 236 604L676 20Q696 -8 732 0Q744 2 752 10Q782 32 774 68Q772 80 764 88L328 672Q310 694 286 696Z" />
<glyph unicode="]" glyph-name="bracketright" horiz-adv-x="430" d="M284 744H132Q100 746 82 718T82 660Q100 632 132 632H220V114H132Q100 114 82 84Q64 56 82 28T132 0H280Q312 0 328 32Q334 44 334 56V690Q334 724 300 740Q292 744 284 744Z" />
<glyph unicode="^" glyph-name="asciicircum" horiz-adv-x="526" d="M240 800Q266 804 284 786L432 640Q456 618 448 584Q440 552 408 544T352 560L246 668L140 560Q118 536 84 544Q52 552 44 584Q36 618 60 640L206 786Q220 800 240 800Z" />
<glyph unicode="_" glyph-name="underscore" horiz-adv-x="596" d="M478 0H88Q56 0 40 28Q22 56 40 84Q56 112 88 112H478Q510 112 526 84T526 28T478 0Z" />
<glyph unicode="`" glyph-name="grave" horiz-adv-x="262" d="M114 620Q136 622 154 604Q172 588 170 564V466Q170 436 140 418Q114 400 86 418T58 466V564Q58 588 74 604T114 620Z" />
<glyph unicode="a" glyph-name="a" horiz-adv-x="450" d="M406 60V264Q400 358 340 412Q324 426 306 436Q268 456 230 456Q140 456 84 380Q22 288 50 156Q68 72 134 30Q150 20 168 12Q242 -12 304 20Q316 -12 352 -14Q376 -16 392 2Q406 20 406 60ZM226 348Q266
348 288 312Q302 286 300 194Q294 128 254 112Q240 108 216 110Q176 116 160 154Q156 162 156 170Q140 232 156 292Q164 332 204 344Q216 348 226 348Z" />
<glyph unicode="b" glyph-name="b" horiz-adv-x="472" d="M240 0H248V0Q296 2 340 32Q412 80 428 190Q432 212 432 238Q432 364 356 428Q304 474 240 474Q192 468 156 454V604Q156 628 140 642Q124 660 102 660Q68 660 56 628Q50 618 50 604V218Q50 76 148 20Q194
-4 240 0ZM156 218V284Q156 332 184 350Q188 352 196 356Q218 368 240 368Q264 364 280 354Q326 324 326 238T280 120Q260 106 240 104H234Q168 104 158 180Q156 198 156 218Z" />
<glyph unicode="c" glyph-name="c" horiz-adv-x="420" d="M242 476Q304 476 354 444Q380 426 380 396Q376 364 348 350Q320 338 296 356Q274 368 242 368Q216 368 192 354Q148 324 148 240V238Q148 148 190 120Q212 106 242 106Q274 106 296 120Q320 140 348 126T380
80Q380 48 354 34Q304 0 242 0T134 32Q42 90 42 240Q42 368 120 432Q170 476 242 476Z" />
<glyph unicode="d" glyph-name="d" horiz-adv-x="472" d="M424 218V604Q424 628 408 642Q394 660 370 660Q336 660 322 628Q318 618 318 604V452Q274 472 232 472Q174 468 136 442Q42 380 42 236Q42 110 120 42L136 32Q180 2 226 0V0H228H232V0Q280 -4 328 20Q396
56 416 148Q424 180 424 218ZM318 282V218Q320 132 278 114Q260 102 240 104H232Q210 110 192 120Q150 160 148 236Q148 324 192 354Q216 368 232 368Q260 364 278 356Q306 340 314 320Q318 304 318 282Z" />
<glyph unicode="e" glyph-name="e" horiz-adv-x="470" d="M252 110H234Q168 120 154 188H372Q408 188 420 220Q424 230 424 240V260Q424 400 328 460Q292 480 246 480Q184 480 136 446Q48 388 42 252Q40 240 42 230Q48 100 136 36Q184 2 234 2Q304 0 334 6Q376
16 404 40Q430 58 424 88Q420 120 394 132Q364 142 340 122Q322 110 252 110ZM244 372Q264 372 278 364Q310 348 318 298V294H154Q162 338 194 360Q216 372 234 372H240H244Z" />
<glyph unicode="f" glyph-name="f" horiz-adv-x="390" d="M284 660L312 656Q342 648 352 618Q360 586 336 564Q314 542 284 552L250 556Q232 556 222 544Q212 534 212 504V454H298Q328 456 344 428T344 376Q328 348 298 348H212V52Q212 20 188 4Q160 -12 132 4Q106
20 106 52V348H94Q62 348 46 376Q32 400 46 428Q62 456 94 454H106V504Q106 572 140 612Q168 648 218 658Q250 664 284 660Z" />
<glyph unicode="g" glyph-name="g" horiz-adv-x="472" d="M424 52V256Q424 378 354 440Q308 476 246 476T136 444Q62 396 46 288Q42 264 42 238Q42 110 120 44L136 32Q184 0 234 0Q280 4 318 20Q314 -52 294 -68Q280 -78 218 -78Q202 -76 188 -72L164 -60L166
-66Q150 -40 120 -40Q88 -40 74 -68T76 -120Q98 -158 144 -172Q158 -174 160 -174L206 -184H214Q288 -184 318 -174Q340 -164 360 -150Q424 -92 424 52ZM244 370Q264 370 278 360Q320 340 320 256V192Q320 140 290 122L280 120Q258 108 234 106Q150 118 148 232V238Q148
324 194 356Q216 368 234 368Q238 368 240 370H244Z" />
<glyph unicode="h" glyph-name="h" horiz-adv-x="478" d="M52 56V608Q52 640 80 658Q92 662 104 662Q128 662 142 648Q158 632 158 608V456Q200 476 242 476Q340 476 392 406Q436 352 434 286V56Q436 24 408 8Q380 -6 356 8Q328 24 328 56V286Q320 354 280 366Q266
372 242 372Q192 372 176 340T158 286V56Q158 16 120 4Q88 -4 64 20Q52 34 52 56Z" />
<glyph unicode="i" glyph-name="i" horiz-adv-x="204" d="M100 668Q66 664 56 632Q52 624 52 614V606Q52 576 78 560T132 560Q158 576 158 606V614Q158 638 140 656Q122 672 100 668ZM104 476Q70 476 58 444Q52 434 52 422V54Q52 24 78 8T132 8Q158 24 158 54V422Q158
444 142 460Q128 476 104 476Z" />
<glyph unicode="j" glyph-name="j" horiz-adv-x="270" d="M156 664Q124 662 110 632Q104 622 104 610V600Q104 572 132 556T184 556Q212 572 210 600V610Q212 632 196 650Q180 664 156 664ZM156 480Q124 480 110 448Q104 440 104 426V-28Q104 -56 96 -68Q80 -86
36 -76Q4 -66 -20 -88Q-40 -110 -32 -140T4 -176L44 -184Q132 -188 178 -136Q210 -94 210 -28V426Q212 448 196 464T156 480Z" />
<glyph unicode="k" glyph-name="k" horiz-adv-x="436" d="M90 670Q112 670 128 654T144 616V322L314 484Q340 508 374 494Q382 490 390 482Q414 456 400 424Q394 414 388 406L264 290L414 86Q436 56 416 26Q410 18 402 12Q374 -10 342 10Q334 14 328 22L186 216L144
176V54Q144 24 118 8Q90 -8 64 8T38 54V616Q38 650 68 664Q78 670 90 670Z" />
<glyph unicode="l" glyph-name="l" horiz-adv-x="202" d="M156 600Q156 636 124 650Q116 654 104 654Q72 654 56 624Q52 614 52 600V52Q52 20 82 6Q92 2 104 2Q138 2 152 32Q156 42 156 52V600Z" />
<glyph unicode="m" glyph-name="m" horiz-adv-x="628" d="M203 478Q271 478 319 436Q367 478 433 478Q517 478 565 418Q603 372 601 314V56Q601 26 575 10T521 10Q495 26 495 56V314Q489 357 463 368Q453 372 433 372Q395 372 383 352Q373 334 371 314V203Q371
173 345 157T291 157Q265 171 265 203V314Q259 357 233 368Q223 372 203 372Q167 372 155 352Q143 331 141 314V56Q143 26 115 10Q89 -6 61 10Q35 26 35 56V314Q43 438 147 470Q173 478 203 478Z" />
<glyph unicode="n" glyph-name="n" horiz-adv-x="466" d="M48 280Q48 350 90 402Q140 466 236 466Q380 452 414 336Q420 310 422 280V52Q422 20 392 6Q380 0 370 0Q336 0 324 32Q320 42 320 52V280Q316 354 236 362Q168 362 154 298Q152 288 152 280V52Q152 20
120 6Q112 0 100 0Q66 0 52 32Q48 42 48 52V280Z" />
<glyph unicode="o" glyph-name="o" horiz-adv-x="482" d="M242 474Q182 474 134 440Q44 380 44 238Q42 104 118 40Q172 0 242 0Q304 0 354 32Q444 92 444 238Q444 374 354 442Q306 474 242 474ZM148 230V238Q148 324 192 352Q216 368 242 368Q340 368 340 238Q340
104 242 104Q148 104 148 230Z" />
<glyph unicode="p" glyph-name="p" horiz-adv-x="468" d="M244 474H238Q188 478 144 454Q76 418 56 324Q48 292 48 256V-132Q48 -162 72 -178Q100 -194 128 -178Q152 -162 152 -132V20Q196 0 238 0Q296 6 336 32Q410 82 426 190Q428 212 428 238Q428 380 336 442Q294
472 244 472V474ZM152 192V256Q152 340 194 360Q212 370 232 368Q236 368 238 368L260 364Q322 336 322 238Q322 152 278 120Q258 106 238 106Q172 116 158 152Q152 168 152 192Z" />
<glyph unicode="q" glyph-name="q" horiz-adv-x="492" d="M226 474H232Q284 478 328 454Q396 418 416 324Q424 292 424 256V-132Q424 -162 400 -178Q372 -194 344 -178Q318 -162 318 -132V20Q274 0 232 0Q176 6 136 32Q42 96 42 238T136 442Q180 472 226 472V474ZM318
192V256Q320 340 278 360Q260 370 240 368H232L212 364Q202 360 192 354Q148 324 148 238T192 120Q216 106 232 106Q260 110 278 120Q306 132 314 152Q318 168 318 192Z" />
<glyph unicode="r" glyph-name="r" horiz-adv-x="450" d="M240 476Q350 476 406 378Q422 348 406 320Q388 294 356 296Q324 300 312 330Q298 358 276 364Q260 368 240 368Q188 368 170 340Q168 336 164 330Q154 308 152 284V54Q152 24 128 8Q100 -8 74 8T48 54V284Q58
422 170 462Q202 476 240 476Z" />
<glyph unicode="s" glyph-name="s" horiz-adv-x="414" d="M198 478Q256 478 298 456Q366 418 356 370Q352 340 318 330Q288 322 268 344Q240 386 178 378Q174 378 172 376Q138 372 126 342Q120 326 130 308Q154 292 208 294Q240 294 256 290Q320 284 360 226Q386
190 384 148Q386 84 332 42Q310 26 286 18Q180 -16 98 18Q32 50 20 94Q12 128 46 148Q78 168 104 146Q108 144 110 142Q144 98 230 112Q264 114 276 138Q284 152 276 168Q258 188 212 188Q112 184 66 228Q16 270 20 338Q20 382 46 416Q92 480 194 478H198Z" />
<glyph unicode="t" glyph-name="t" horiz-adv-x="346" d="M148 664Q172 664 188 648T202 610V472H268Q300 472 316 444Q332 420 316 392T268 366H202V158Q202 128 212 118Q218 110 232 108Q248 102 272 110Q304 120 328 96Q348 76 340 44Q332 14 302 6L264 0Q176
-6 132 48Q96 90 96 158V366H64Q32 364 18 392Q2 420 18 444Q32 472 64 472H96V610Q96 642 124 660Q136 664 148 664Z" />
<glyph unicode="u" glyph-name="u" horiz-adv-x="476" d="M100 476Q122 476 140 460Q156 444 156 420V192Q156 164 166 146Q180 120 200 112Q218 106 240 106Q290 106 308 136L314 146Q324 168 324 192V420Q324 452 352 468T404 468Q432 452 432 420V192Q420 54
308 12Q276 0 240 0Q144 0 90 72Q80 84 72 98Q48 144 48 192V420Q48 456 78 470Q88 476 100 476Z" />
<glyph unicode="v" glyph-name="v" horiz-adv-x="456" d="M70 484Q104 486 120 456L124 448Q168 258 204 170L220 138Q224 132 228 144Q272 238 322 428Q326 468 358 480L366 484Q400 492 424 462Q440 444 436 422Q414 324 376 208Q336 98 310 58Q302 46 294 36Q266
-2 220 0Q210 0 200 4Q150 20 112 100Q108 106 106 114Q58 226 16 416Q8 450 38 474Q52 486 70 484Z" />
<glyph unicode="w" glyph-name="w" horiz-adv-x="626" d="M86 474Q116 476 132 448Q138 438 138 426V220L140 156Q142 142 148 130Q160 100 220 106Q252 108 260 154Q262 156 262 158L264 248V252Q270 280 302 290Q328 296 348 280Q370 264 368 220L370 156Q372
142 378 130Q388 104 450 106Q482 108 490 154Q492 158 492 160V406Q488 452 518 468Q546 486 576 464Q596 450 598 428V192Q602 106 560 56Q512 -2 430 -2Q362 0 316 42Q258 -10 178 0Q144 4 116 20Q54 52 38 124Q34 138 34 152V412Q28 446 56 466Q70 476 86 474Z"
/>
<glyph unicode="x" glyph-name="x" horiz-adv-x="496" d="M74 476Q100 476 116 456L224 322L332 456Q352 480 382 476Q412 470 424 442Q434 414 414 390L292 238L414 88Q434 64 424 34Q412 6 382 2Q352 -4 332 20L224 154L116 20Q96 -4 66 2Q36 6 24 34Q14 64
34 88L156 238L34 390Q12 416 26 446T74 476Z" />
<glyph unicode="y" glyph-name="y" horiz-adv-x="464" d="M432 422V30Q432 -90 380 -140Q338 -184 242 -184Q150 -196 74 -150Q48 -134 48 -104Q48 -72 76 -58Q102 -42 128 -60Q160 -78 236 -78H240Q292 -78 306 -64Q324 -48 324 20Q268 -8 204 4Q76 38 52 188Q48
212 48 238V422Q48 458 80 472Q88 476 100 476Q124 476 140 460T156 422V238Q156 152 200 120Q220 106 240 106Q266 108 284 120Q312 132 320 152Q324 168 324 192V422Q324 452 352 470Q380 484 404 470Q432 452 432 422Z" />
<glyph unicode="z" glyph-name="z" horiz-adv-x="434" d="M74 466H350Q382 466 396 436Q412 408 392 380L182 106H350Q380 106 396 80T396 26Q380 0 350 0H74Q42 0 26 30Q12 60 32 86L242 360H74Q44 360 28 386Q12 414 28 440T74 466Z" />
<glyph unicode="{" glyph-name="braceleft" horiz-adv-x="462" d="M230 700H326Q360 700 376 670T376 614Q360 584 326 586H248V496Q248 416 224 368Q220 364 208 350Q222 334 224 332Q248 286 248 204V114H326Q360 114 376 86T376 30T326 2H230Q184 2 158 40Q140
60 138 98Q136 114 136 198Q138 200 138 204Q138 286 110 292Q100 294 82 294Q48 294 40 332Q28 370 52 394Q64 406 82 406Q116 406 122 418Q138 432 138 496L136 588Q136 596 138 602Q148 688 220 698Q224 700 230 700Z" />
<glyph unicode="|" glyph-name="bar" horiz-adv-x="378" d="M240 716Q240 748 212 760Q200 766 190 766Q156 766 140 738Q138 726 138 716V-108Q138 -140 168 -154Q178 -160 190 -160Q222 -160 238 -128Q240 -120 240 -108V716Z" />
<glyph unicode="}" glyph-name="braceright" horiz-adv-x="494" d="M196 700H100Q66 700 52 670Q34 640 52 614Q66 584 100 586H178V496Q178 416 202 368Q204 364 218 350Q204 334 202 332Q178 286 178 204V114H100Q66 114 52 86Q34 58 52 30Q66 2 100 2H196Q240
2 268 40Q284 60 288 98Q292 120 290 204Q290 286 316 292Q324 294 342 294Q378 294 386 332Q396 370 374 394Q360 406 342 406Q310 406 304 418Q302 418 300 422Q290 444 290 496V588Q290 596 288 602Q280 688 204 698Q200 700 196 700Z" />
<glyph unicode="&#xa6;" glyph-name="brokenbar" horiz-adv-x="162" d="M134 234Q134 264 104 280Q94 284 82 284Q48 284 34 256Q30 244 30 234V54Q30 20 60 6Q70 2 82 2Q118 2 130 34Q134 42 134 54V234ZM134 600Q134 634 104 650Q94 654 82 654Q48 654 34 624Q30
614 30 600V422Q30 388 60 376Q70 372 82 372Q118 372 130 402Q134 412 134 422V600Z" />
<glyph unicode="f;" glyph-name="questiondown" horiz-adv-x="556" d="M168 708Q134 704 122 674Q120 664 120 656V648Q120 616 146 600T200 600Q224 616 224 648V656Q224 680 208 696Q190 712 168 708ZM190 114Q150 114 150 130Q150 162 120 180Q94 196 64
180Q38 162 38 130Q38 82 84 36L92 28Q132 2 190 0H302Q368 0 416 36Q470 76 480 160Q480 168 480 178Q480 260 418 310Q408 318 400 322Q344 356 280 356Q266 360 256 360Q242 368 240 374T238 398V444Q240 478 210 494Q180 512 154 494Q124 478 126 444V398Q126
324 180 276Q224 240 280 244Q316 244 340 226Q364 212 368 194V178Q368 110 302 112L190 114Z" />
</font>
</defs>
</svg>
